<svg width="32" height="25" viewBox="0 0 32 25" fill="none" xmlns="http://www.w3.org/2000/svg">
<path d="M26.8273 2.05316C24.7772 1.094 22.5852 0.396923 20.2936 0C20.0121 0.508841 19.6833 1.19324 19.4566 1.73768C17.0205 1.37132 14.6068 1.37132 12.2155 1.73768C11.9888 1.19324 11.6526 0.508841 11.3686 0C9.07445 0.396923 6.87993 1.09656 4.82989 2.05824C0.694943 8.30669 -0.425973 14.3999 0.134486 20.4067C2.877 22.4547 5.53483 23.6988 8.1478 24.5129C8.79296 23.625 9.36835 22.6811 9.86404 21.6864C8.91998 21.3277 8.01578 20.885 7.16142 20.3711C7.38808 20.2031 7.60979 20.0276 7.82399 19.8469C13.035 22.2843 18.6969 22.2843 23.8457 19.8469C24.0624 20.0276 24.284 20.2031 24.5082 20.3711C23.6513 20.8875 22.7447 21.3302 21.8006 21.6889C22.2963 22.6811 22.8692 23.6276 23.5168 24.5155C26.1323 23.7013 28.7926 22.4573 31.5351 20.4067C32.1928 13.4433 30.4118 7.40605 26.8273 2.05316ZM10.574 16.7126C9.00968 16.7126 7.72683 15.2522 7.72683 13.4739C7.72683 11.6955 8.98228 10.2326 10.574 10.2326C12.1657 10.2326 13.4485 11.6929 13.4211 13.4739C13.4236 15.2522 12.1657 16.7126 10.574 16.7126ZM21.0957 16.7126C19.5314 16.7126 18.2485 15.2522 18.2485 13.4739C18.2485 11.6955 19.5039 10.2326 21.0957 10.2326C22.6874 10.2326 23.9702 11.6929 23.9428 13.4739C23.9428 15.2522 22.6874 16.7126 21.0957 16.7126Z" fill="#3E3D3F"/>
</svg>
