<svg width="142" height="200" viewBox="0 0 142 200" fill="none" xmlns="http://www.w3.org/2000/svg">
<path d="M102.628 33.0344C107.435 58.2949 101.355 85.4943 82.5218 103.645C82.1438 104.004 81.8819 104.467 81.77 104.976C81.6581 105.485 81.7013 106.016 81.8941 106.5C82.3029 107.501 82.9104 108.409 83.6801 109.168C84.4498 109.928 85.3656 110.523 86.3718 110.917C87.3781 111.312 88.4539 111.498 89.5341 111.464C90.6143 111.429 91.6764 111.176 92.6558 110.719C89.0196 112.604 85.0287 113.704 80.9413 113.948C76.8538 114.192 72.7605 113.575 68.926 112.137C68.3638 111.917 67.8919 111.514 67.5861 110.993C67.2803 110.472 67.1585 109.863 67.2401 109.265C68.7468 99.0312 46.0036 105.889 41.5913 109.678C49.3543 104.388 55.6472 97.2112 59.8796 88.8201C64.1119 80.429 66.1447 71.0991 65.7872 61.706C52.7152 60.178 39.5542 63.7106 29 71.5804C32.3142 63.6048 37.5746 56.589 44.2992 51.1752C51.0238 45.7615 58.998 42.1229 67.4913 40.5927C70.1369 40.142 72.5106 38.6971 74.1276 36.5532C78.9345 30.09 76.854 20.2336 81.6609 13.519C83.9645 10.3092 87.2066 7.89443 90.94 6.60806C94.6733 5.3217 98.7136 5.22722 102.503 6.33762C105.609 3.11283 109.617 0.903566 114 0C113.628 1.2974 113.142 2.55907 112.547 3.77018C111.717 5.39131 110.667 6.88985 109.426 8.22282C108.852 8.84521 108.314 9.49145 107.812 10.1617L107.31 10.844C105.066 14.0311 103.493 17.6421 102.688 21.4571C101.884 25.2721 101.863 29.2112 102.628 33.0344Z" fill="#7808FF"/>
<path d="M10.4941 144.654C4.88672 144.654 0.289062 149.209 0.289062 154.795V176H4.19922V165.387C4.19922 161.906 6.99219 159.135 10.4941 159.135C13.9961 159.135 16.7891 161.906 16.8105 165.387V176H20.6992V154.795C20.6992 149.209 16.123 144.654 10.4941 144.654ZM10.4941 148.521C13.9961 148.521 16.8105 151.314 16.8105 154.795V157.438C15.0703 156.062 12.8789 155.246 10.4941 155.246C8.13086 155.246 5.93945 156.062 4.19922 157.438V154.795C4.19922 151.314 6.99219 148.521 10.4941 148.521ZM37.9039 172.068C41.4273 172.068 44.2203 169.275 44.2203 165.752C44.2203 162.25 41.4273 159.436 37.9039 159.436C34.402 159.436 31.5875 162.25 31.5875 165.752C31.5875 169.275 34.402 172.068 37.9039 172.068ZM48.1305 165.473V165.387V165.473ZM48.1305 165.193V165.086V165.193ZM48.109 164.893C48.109 164.871 48.109 164.828 48.0875 164.807C48.109 164.828 48.109 164.871 48.109 164.893ZM48.0875 164.613C48.066 164.592 48.066 164.549 48.066 164.506C48.066 164.549 48.066 164.592 48.0875 164.613ZM48.0445 164.334C48.0445 164.291 48.0445 164.27 48.023 164.248C48.0445 164.27 48.0445 164.291 48.0445 164.334ZM48.0016 164.033C47.9801 164.012 47.9801 163.99 47.9801 163.969C47.9801 163.99 47.9801 164.012 48.0016 164.033ZM47.9371 163.689C47.9371 163.668 47.9156 163.646 47.9156 163.646C47.9156 163.646 47.9371 163.668 47.9371 163.689ZM47.8727 163.432C47.8727 163.389 47.8512 163.367 47.8512 163.324C47.8512 163.367 47.8727 163.389 47.8727 163.432ZM47.8082 163.152C47.7867 163.131 47.7867 163.088 47.7867 163.066C47.7867 163.088 47.7867 163.131 47.8082 163.152ZM47.7223 162.895C47.7223 162.852 47.7008 162.83 47.7008 162.787C47.7008 162.83 47.7223 162.852 47.7223 162.895ZM47.6363 162.615C47.6363 162.594 47.6363 162.551 47.6148 162.529C47.6363 162.551 47.6363 162.594 47.6363 162.615ZM47.5504 162.336C47.5504 162.314 47.5289 162.293 47.5289 162.271C47.5289 162.293 47.5504 162.314 47.5504 162.336ZM47.3355 161.756C47.3141 161.734 47.3141 161.713 47.2926 161.691C47.3141 161.713 47.3141 161.734 47.3355 161.756ZM47.2066 161.52C47.2066 161.477 47.1852 161.455 47.1852 161.434C47.1852 161.455 47.2066 161.477 47.2066 161.52ZM47.0992 161.262C47.0777 161.24 47.0777 161.219 47.0562 161.176C47.0777 161.219 47.0777 161.24 47.0992 161.262ZM46.9703 161.025C46.9488 161.004 46.9488 160.961 46.9273 160.939C46.9488 160.961 46.9488 161.004 46.9703 161.025ZM46.8414 160.768C46.8199 160.746 46.8199 160.725 46.7984 160.703C46.8199 160.725 46.8199 160.746 46.8414 160.768ZM46.5191 160.23C46.5191 160.23 46.4977 160.23 46.4977 160.209C46.4977 160.23 46.5191 160.23 46.5191 160.23ZM46.3687 160.016C46.3473 159.994 46.3473 159.973 46.3258 159.951C46.3473 159.973 46.3473 159.994 46.3687 160.016ZM46.2184 159.801L46.1539 159.736L46.2184 159.801ZM46.0465 159.586C46.025 159.543 46.025 159.521 46.0035 159.5C46.025 159.521 46.025 159.543 46.0465 159.586ZM45.8746 159.35C45.8531 159.328 45.8531 159.307 45.8316 159.307C45.8531 159.307 45.8531 159.328 45.8746 159.35ZM45.6812 159.135C45.6812 159.113 45.6598 159.113 45.6598 159.092C45.6598 159.113 45.6812 159.113 45.6812 159.135ZM45.2945 158.684C45.273 158.684 45.273 158.662 45.2516 158.662C45.273 158.662 45.273 158.684 45.2945 158.684ZM45.1012 158.49C45.0797 158.469 45.0582 158.469 45.0367 158.447C45.0582 158.469 45.0797 158.469 45.1012 158.49ZM44.9078 158.318L44.8434 158.254L44.9078 158.318ZM44.693 158.125C44.693 158.104 44.6715 158.082 44.65 158.061C44.6715 158.082 44.693 158.104 44.693 158.125ZM44.4996 157.932C44.4781 157.932 44.4566 157.91 44.4352 157.889C44.4566 157.91 44.4781 157.932 44.4996 157.932ZM37.9039 176C32.275 176 27.6773 171.381 27.6773 165.752C27.6773 160.123 32.275 155.525 37.9039 155.525C40.2887 155.525 42.4801 156.342 44.2203 157.717V146.953H48.152V165.752C48.152 171.381 43.5328 176 37.9039 176ZM65.3781 155.439C59.7492 155.439 55.1516 160.037 55.1516 165.666C55.1516 171.295 59.7492 175.914 65.3781 175.914C67.7629 175.914 69.9543 175.076 71.6945 173.701V174.238C71.6945 177.762 68.9016 180.555 65.3781 180.555C63.9387 180.555 62.6281 180.104 61.5754 179.309L58.8039 182.059C60.5871 183.562 62.8859 184.486 65.3781 184.486C71.007 184.486 75.6262 179.867 75.6262 174.238V165.666C75.6262 160.037 71.007 155.439 65.3781 155.439ZM65.0344 159.393C68.5578 159.393 71.3508 162.207 71.3508 165.709C71.3508 169.232 68.5578 172.047 65.0344 172.047C61.5324 172.047 58.718 169.232 58.718 165.709C58.718 162.207 61.5324 159.393 65.0344 159.393ZM103.1 176V155.525H99.1687V165.752C99.1687 169.275 96.3758 172.068 92.8523 172.068C89.3504 172.068 86.5574 169.275 86.5359 165.773V155.525H82.6258V165.945C82.7332 171.488 87.2879 176 92.8523 176C95.2371 176 97.4285 175.162 99.1687 173.787V176H103.1ZM110.1 146.953V150.863H114.01V146.953H110.1ZM110.1 155.525V176H114.01V155.525H110.1ZM120.988 155.525V176H124.898V165.752C124.898 162.25 127.713 159.436 131.215 159.436C134.738 159.436 137.531 162.229 137.531 165.73V176H141.463V165.58H141.441C141.355 160.037 136.779 155.525 131.215 155.525C128.852 155.525 126.639 156.342 124.898 157.717V155.525H120.988Z" fill="#191523"/>
<path d="M6.948 199C6.9 199 6.86 198.984 6.828 198.952C6.796 198.92 6.78 198.88 6.78 198.832V198.268C6.78 198.22 6.796 198.18 6.828 198.148C6.86 198.116 6.9 198.1 6.948 198.1H8.16V191.56H6.948C6.9 191.56 6.86 191.544 6.828 191.512C6.796 191.48 6.78 191.44 6.78 191.392V190.828C6.78 190.78 6.796 190.74 6.828 190.708C6.86 190.676 6.9 190.66 6.948 190.66H10.356C10.404 190.66 10.444 190.676 10.476 190.708C10.508 190.74 10.524 190.78 10.524 190.828V191.392C10.524 191.44 10.508 191.48 10.476 191.512C10.444 191.544 10.404 191.56 10.356 191.56H9.144V198.1H10.356C10.404 198.1 10.444 198.116 10.476 198.148C10.508 198.18 10.524 198.22 10.524 198.268V198.832C10.524 198.88 10.508 198.92 10.476 198.952C10.444 198.984 10.404 199 10.356 199H6.948ZM15.4486 199C15.4006 199 15.3606 198.984 15.3286 198.952C15.2966 198.92 15.2806 198.88 15.2806 198.832V191.584H13.2046C13.1566 191.584 13.1166 191.568 13.0846 191.536C13.0526 191.504 13.0366 191.464 13.0366 191.416V190.828C13.0366 190.78 13.0526 190.74 13.0846 190.708C13.1166 190.676 13.1566 190.66 13.2046 190.66H18.3406C18.3886 190.66 18.4286 190.676 18.4606 190.708C18.4926 190.74 18.5086 190.78 18.5086 190.828V191.416C18.5086 191.464 18.4926 191.504 18.4606 191.536C18.4286 191.568 18.3886 191.584 18.3406 191.584H16.2646V198.832C16.2646 198.88 16.2486 198.92 16.2166 198.952C16.1846 198.984 16.1446 199 16.0966 199H15.4486ZM21.1119 193.456C21.0319 193.456 20.9719 193.428 20.9319 193.372C20.8919 193.308 20.8839 193.236 20.9079 193.156L21.4719 190.78C21.4799 190.74 21.4999 190.712 21.5319 190.696C21.5719 190.672 21.6079 190.66 21.6399 190.66H22.4559C22.5359 190.66 22.5959 190.692 22.6359 190.756C22.6839 190.812 22.6919 190.876 22.6599 190.948L21.5559 193.456H21.1119ZM27.4817 199.156C27.0817 199.156 26.6817 199.1 26.2817 198.988C25.8897 198.876 25.5497 198.72 25.2617 198.52C25.2297 198.504 25.2057 198.476 25.1897 198.436C25.1817 198.396 25.1857 198.356 25.2017 198.316L25.4777 197.776C25.5177 197.704 25.5737 197.668 25.6457 197.668C25.6857 197.668 25.7177 197.676 25.7417 197.692C26.3577 198.06 26.9417 198.244 27.4937 198.244C28.0057 198.244 28.4257 198.116 28.7537 197.86C29.0817 197.596 29.2457 197.244 29.2457 196.804C29.2457 196.516 29.1737 196.28 29.0297 196.096C28.8857 195.912 28.7057 195.764 28.4897 195.652C28.2737 195.54 27.9737 195.408 27.5897 195.256C27.0857 195.064 26.6817 194.888 26.3777 194.728C26.0737 194.56 25.8097 194.32 25.5857 194.008C25.3617 193.696 25.2497 193.292 25.2497 192.796C25.2497 192.3 25.3657 191.88 25.5977 191.536C25.8377 191.184 26.1537 190.924 26.5457 190.756C26.9377 190.588 27.3697 190.504 27.8417 190.504C28.2257 190.504 28.5977 190.56 28.9577 190.672C29.3257 190.776 29.6497 190.92 29.9297 191.104C29.9617 191.12 29.9817 191.152 29.9897 191.2C30.0057 191.24 30.0017 191.28 29.9777 191.32L29.7137 191.812C29.6897 191.86 29.6537 191.892 29.6057 191.908C29.5577 191.924 29.5097 191.916 29.4617 191.884C28.9257 191.564 28.3897 191.404 27.8537 191.404C27.3657 191.404 26.9737 191.524 26.6777 191.764C26.3897 192.004 26.2457 192.332 26.2457 192.748C26.2457 193.036 26.3177 193.276 26.4617 193.468C26.6057 193.652 26.7817 193.8 26.9897 193.912C27.2057 194.024 27.5097 194.156 27.9017 194.308C27.9737 194.34 28.2417 194.444 28.7057 194.62C29.1777 194.796 29.5497 195.064 29.8217 195.424C30.1017 195.784 30.2417 196.216 30.2417 196.72C30.2417 197.216 30.1217 197.648 29.8817 198.016C29.6497 198.384 29.3257 198.668 28.9097 198.868C28.4937 199.06 28.0177 199.156 27.4817 199.156ZM37.1511 199C37.0791 199 37.0231 198.976 36.9831 198.928C36.9511 198.872 36.9471 198.808 36.9711 198.736L39.5751 190.816C39.5911 190.768 39.6191 190.732 39.6591 190.708C39.7071 190.676 39.7551 190.66 39.8031 190.66H40.5951C40.6431 190.66 40.6871 190.676 40.7271 190.708C40.7751 190.732 40.8071 190.768 40.8231 190.816L43.4271 198.736C43.4351 198.752 43.4391 198.78 43.4391 198.82C43.4391 198.868 43.4191 198.912 43.3791 198.952C43.3471 198.984 43.3031 199 43.2471 199H42.6591C42.6111 199 42.5631 198.988 42.5151 198.964C42.4751 198.932 42.4471 198.892 42.4311 198.844L41.7591 196.756H38.6391L37.9671 198.844C37.9591 198.892 37.9311 198.932 37.8831 198.964C37.8351 198.988 37.7871 199 37.7391 199H37.1511ZM41.4831 195.88L40.1991 191.908L38.9151 195.88H41.4831ZM46.5753 199C46.4553 199 46.3513 198.96 46.2633 198.88C46.1833 198.792 46.1433 198.688 46.1433 198.568V191.092C46.1433 190.972 46.1833 190.872 46.2633 190.792C46.3513 190.704 46.4553 190.66 46.5753 190.66H48.6513C49.0593 190.66 49.4313 190.752 49.7673 190.936C50.1033 191.112 50.3633 191.364 50.5473 191.692C50.7393 192.012 50.8353 192.372 50.8353 192.772C50.8353 193.108 50.7633 193.42 50.6193 193.708C50.4833 193.996 50.2833 194.244 50.0193 194.452C50.4433 194.628 50.7753 194.904 51.0153 195.28C51.2633 195.656 51.3873 196.08 51.3873 196.552C51.3873 197.008 51.2793 197.424 51.0633 197.8C50.8473 198.168 50.5513 198.46 50.1753 198.676C49.8073 198.892 49.3993 199 48.9513 199H46.5753ZM48.4953 194.224C48.8713 194.224 49.1913 194.088 49.4553 193.816C49.7273 193.536 49.8633 193.208 49.8633 192.832C49.8633 192.472 49.7393 192.168 49.4913 191.92C49.2433 191.672 48.9313 191.548 48.5553 191.548H47.1033V194.224H48.4953ZM48.8913 198.1C49.3233 198.1 49.6793 197.956 49.9593 197.668C50.2473 197.38 50.3913 197.024 50.3913 196.6C50.3913 196.176 50.2473 195.824 49.9593 195.544C49.6793 195.264 49.3233 195.124 48.8913 195.124H47.1033V198.1H48.8913ZM56.9456 199.156C56.4176 199.156 55.9256 199.024 55.4696 198.76C55.0216 198.496 54.6656 198.14 54.4016 197.692C54.1376 197.244 54.0056 196.756 54.0056 196.228V193.432C54.0056 192.904 54.1376 192.416 54.4016 191.968C54.6656 191.52 55.0216 191.164 55.4696 190.9C55.9256 190.636 56.4176 190.504 56.9456 190.504C57.4736 190.504 57.9616 190.636 58.4096 190.9C58.8656 191.164 59.2256 191.52 59.4896 191.968C59.7536 192.416 59.8856 192.904 59.8856 193.432V196.228C59.8856 196.756 59.7536 197.244 59.4896 197.692C59.2256 198.14 58.8656 198.496 58.4096 198.76C57.9616 199.024 57.4736 199.156 56.9456 199.156ZM56.9456 198.232C57.2976 198.232 57.6216 198.14 57.9176 197.956C58.2216 197.772 58.4616 197.528 58.6376 197.224C58.8136 196.912 58.9016 196.58 58.9016 196.228V193.432C58.9016 193.08 58.8136 192.752 58.6376 192.448C58.4616 192.136 58.2216 191.888 57.9176 191.704C57.6216 191.52 57.2976 191.428 56.9456 191.428C56.5936 191.428 56.2656 191.52 55.9616 191.704C55.6656 191.888 55.4296 192.136 55.2536 192.448C55.0776 192.752 54.9896 193.08 54.9896 193.432V196.228C54.9896 196.58 55.0776 196.912 55.2536 197.224C55.4296 197.528 55.6656 197.772 55.9616 197.956C56.2656 198.14 56.5936 198.232 56.9456 198.232ZM66.0734 199.156C65.5214 199.156 65.0214 199.024 64.5734 198.76C64.1254 198.496 63.7694 198.124 63.5054 197.644C63.2494 197.156 63.1214 196.604 63.1214 195.988V190.828C63.1214 190.78 63.1374 190.74 63.1694 190.708C63.2014 190.676 63.2414 190.66 63.2894 190.66H63.9374C63.9854 190.66 64.0254 190.676 64.0574 190.708C64.0894 190.74 64.1054 190.78 64.1054 190.828V196.048C64.1054 196.48 64.1894 196.86 64.3574 197.188C64.5334 197.516 64.7694 197.768 65.0654 197.944C65.3614 198.12 65.6974 198.208 66.0734 198.208C66.4414 198.208 66.7734 198.12 67.0694 197.944C67.3654 197.768 67.5974 197.516 67.7654 197.188C67.9414 196.86 68.0294 196.48 68.0294 196.048V190.828C68.0294 190.78 68.0454 190.74 68.0774 190.708C68.1094 190.676 68.1494 190.66 68.1974 190.66H68.8454C68.8934 190.66 68.9334 190.676 68.9654 190.708C68.9974 190.74 69.0134 190.78 69.0134 190.828V195.988C69.0134 196.604 68.8814 197.156 68.6174 197.644C68.3614 198.124 68.0094 198.496 67.5614 198.76C67.1134 199.024 66.6174 199.156 66.0734 199.156ZM74.2322 199C74.1842 199 74.1442 198.984 74.1122 198.952C74.0802 198.92 74.0642 198.88 74.0642 198.832V191.584H71.9882C71.9402 191.584 71.9002 191.568 71.8682 191.536C71.8362 191.504 71.8202 191.464 71.8202 191.416V190.828C71.8202 190.78 71.8362 190.74 71.8682 190.708C71.9002 190.676 71.9402 190.66 71.9882 190.66H77.1242C77.1722 190.66 77.2122 190.676 77.2442 190.708C77.2762 190.74 77.2922 190.78 77.2922 190.828V191.416C77.2922 191.464 77.2762 191.504 77.2442 191.536C77.2122 191.568 77.1722 191.584 77.1242 191.584H75.0482V198.832C75.0482 198.88 75.0322 198.92 75.0002 198.952C74.9682 198.984 74.9282 199 74.8802 199H74.2322ZM84.7019 199C84.6539 199 84.6139 198.984 84.5819 198.952C84.5499 198.92 84.5339 198.88 84.5339 198.832V191.092C84.5339 190.972 84.5739 190.872 84.6539 190.792C84.7419 190.704 84.8459 190.66 84.9659 190.66H86.9819C87.4619 190.66 87.9019 190.776 88.3019 191.008C88.7019 191.24 89.0179 191.552 89.2499 191.944C89.4819 192.336 89.5979 192.768 89.5979 193.24C89.5979 193.712 89.4819 194.144 89.2499 194.536C89.0179 194.928 88.7019 195.24 88.3019 195.472C87.9019 195.704 87.4619 195.82 86.9819 195.82H85.5179V198.832C85.5179 198.88 85.5019 198.92 85.4699 198.952C85.4379 198.984 85.3979 199 85.3499 199H84.7019ZM86.9219 194.896C87.2259 194.896 87.5059 194.824 87.7619 194.68C88.0179 194.528 88.2179 194.324 88.3619 194.068C88.5139 193.812 88.5899 193.536 88.5899 193.24C88.5899 192.944 88.5139 192.668 88.3619 192.412C88.2179 192.156 88.0179 191.956 87.7619 191.812C87.5059 191.66 87.2259 191.584 86.9219 191.584H85.5179V194.896H86.9219ZM92.5816 199C92.5336 199 92.4936 198.984 92.4616 198.952C92.4296 198.92 92.4136 198.88 92.4136 198.832V191.092C92.4136 190.972 92.4536 190.872 92.5336 190.792C92.6216 190.704 92.7256 190.66 92.8456 190.66H94.9336C95.3816 190.66 95.7896 190.768 96.1576 190.984C96.5336 191.2 96.8296 191.496 97.0456 191.872C97.2616 192.24 97.3696 192.644 97.3696 193.084C97.3696 193.668 97.1856 194.18 96.8176 194.62C96.4496 195.06 95.9856 195.336 95.4256 195.448L97.4176 198.664C97.4416 198.696 97.4536 198.736 97.4536 198.784C97.4536 198.848 97.4296 198.9 97.3816 198.94C97.3416 198.98 97.2896 199 97.2256 199H96.6136C96.5336 199 96.4736 198.964 96.4336 198.892L94.3336 195.496H93.3976V198.832C93.3976 198.88 93.3816 198.92 93.3496 198.952C93.3176 198.984 93.2776 199 93.2296 199H92.5816ZM94.8616 194.572C95.2936 194.572 95.6496 194.432 95.9296 194.152C96.2176 193.872 96.3616 193.52 96.3616 193.096C96.3616 192.656 96.2176 192.296 95.9296 192.016C95.6496 191.728 95.2936 191.584 94.8616 191.584H93.3976V194.572H94.8616ZM100.161 199C100.113 199 100.073 198.984 100.041 198.952C100.009 198.92 99.9933 198.88 99.9933 198.832V198.268C99.9933 198.22 100.009 198.18 100.041 198.148C100.073 198.116 100.113 198.1 100.161 198.1H101.373V191.56H100.161C100.113 191.56 100.073 191.544 100.041 191.512C100.009 191.48 99.9933 191.44 99.9933 191.392V190.828C99.9933 190.78 100.009 190.74 100.041 190.708C100.073 190.676 100.113 190.66 100.161 190.66H103.569C103.617 190.66 103.657 190.676 103.689 190.708C103.721 190.74 103.737 190.78 103.737 190.828V191.392C103.737 191.44 103.721 191.48 103.689 191.512C103.657 191.544 103.617 191.56 103.569 191.56H102.357V198.1H103.569C103.617 198.1 103.657 198.116 103.689 198.148C103.721 198.18 103.737 198.22 103.737 198.268V198.832C103.737 198.88 103.721 198.92 103.689 198.952C103.657 198.984 103.617 199 103.569 199H100.161ZM109.056 199C109.008 199 108.96 198.988 108.912 198.964C108.872 198.932 108.844 198.892 108.828 198.844L106.356 190.924C106.348 190.908 106.344 190.88 106.344 190.84C106.344 190.792 106.36 190.752 106.392 190.72C106.432 190.68 106.48 190.66 106.536 190.66H107.124C107.172 190.66 107.22 190.676 107.268 190.708C107.316 190.732 107.344 190.768 107.352 190.816L109.452 197.752L111.552 190.816C111.568 190.768 111.596 190.732 111.636 190.708C111.684 190.676 111.732 190.66 111.78 190.66H112.368C112.44 190.66 112.492 190.688 112.524 190.744C112.564 190.792 112.572 190.852 112.548 190.924L110.076 198.844C110.068 198.892 110.04 198.932 109.992 198.964C109.944 198.988 109.896 199 109.848 199H109.056ZM114.319 199C114.247 199 114.191 198.976 114.151 198.928C114.119 198.872 114.115 198.808 114.139 198.736L116.743 190.816C116.759 190.768 116.787 190.732 116.827 190.708C116.875 190.676 116.923 190.66 116.971 190.66H117.763C117.811 190.66 117.855 190.676 117.895 190.708C117.943 190.732 117.975 190.768 117.991 190.816L120.595 198.736C120.603 198.752 120.607 198.78 120.607 198.82C120.607 198.868 120.587 198.912 120.547 198.952C120.515 198.984 120.471 199 120.415 199H119.827C119.779 199 119.731 198.988 119.683 198.964C119.643 198.932 119.615 198.892 119.599 198.844L118.927 196.756H115.807L115.135 198.844C115.127 198.892 115.099 198.932 115.051 198.964C115.003 198.988 114.955 199 114.907 199H114.319ZM118.651 195.88L117.367 191.908L116.083 195.88H118.651ZM125.763 199.156C125.243 199.156 124.763 199.024 124.323 198.76C123.883 198.496 123.535 198.14 123.279 197.692C123.023 197.244 122.895 196.756 122.895 196.228V193.42C122.895 192.892 123.023 192.404 123.279 191.956C123.535 191.508 123.883 191.152 124.323 190.888C124.763 190.624 125.243 190.492 125.763 190.492C126.187 190.492 126.583 190.568 126.951 190.72C127.319 190.864 127.643 191.076 127.923 191.356C127.963 191.388 127.983 191.436 127.983 191.5C127.983 191.556 127.963 191.608 127.923 191.656C127.755 191.848 127.647 191.968 127.599 192.016C127.543 192.056 127.487 192.076 127.431 192.076C127.367 192.076 127.307 192.048 127.251 191.992C126.851 191.608 126.359 191.416 125.775 191.416C125.431 191.416 125.115 191.508 124.827 191.692C124.539 191.876 124.311 192.124 124.143 192.436C123.975 192.74 123.891 193.068 123.891 193.42V196.228C123.891 196.58 123.975 196.912 124.143 197.224C124.311 197.528 124.539 197.772 124.827 197.956C125.115 198.14 125.431 198.232 125.775 198.232C126.359 198.232 126.851 198.04 127.251 197.656C127.307 197.6 127.367 197.572 127.431 197.572C127.487 197.572 127.543 197.592 127.599 197.632C127.647 197.68 127.755 197.8 127.923 197.992C127.963 198.032 127.983 198.084 127.983 198.148C127.983 198.204 127.963 198.252 127.923 198.292C127.643 198.572 127.319 198.788 126.951 198.94C126.583 199.084 126.187 199.156 125.763 199.156ZM132.89 199C132.842 199 132.802 198.984 132.77 198.952C132.738 198.92 132.722 198.88 132.722 198.832V194.98L130.262 190.984C130.238 190.936 130.226 190.896 130.226 190.864C130.226 190.8 130.246 190.752 130.286 190.72C130.326 190.68 130.378 190.66 130.442 190.66H131.09C131.162 190.66 131.222 190.696 131.27 190.768L133.214 193.972L135.146 190.768C135.194 190.696 135.254 190.66 135.326 190.66H135.974C136.038 190.66 136.09 190.68 136.13 190.72C136.17 190.752 136.19 190.8 136.19 190.864C136.19 190.896 136.178 190.936 136.154 190.984L133.706 194.944V198.832C133.706 198.88 133.69 198.92 133.658 198.952C133.626 198.984 133.586 199 133.538 199H132.89Z" fill="#191523"/>
</svg>
