<svg width="25" height="25" viewBox="0 0 25 25" fill="none" xmlns="http://www.w3.org/2000/svg">
<path d="M12.8211 0C9.52002 0 9.10789 0.015189 7.81177 0.072907C6.51767 0.133663 5.63671 0.337195 4.86207 0.637936C4.06313 0.947791 3.38469 1.36397 2.70929 2.03937C2.03389 2.71477 1.6167 3.3922 1.30786 4.19215C1.00712 4.96679 0.802572 5.84775 0.742829 7.14185C0.682073 8.43797 0.669922 8.8501 0.669922 12.1512C0.669922 15.4522 0.685111 15.8644 0.742829 17.1605C0.803585 18.4536 1.00712 19.3355 1.30786 20.1102C1.61295 20.9211 2.0912 21.6558 2.70929 22.263C3.31612 22.8815 4.05088 23.3598 4.86207 23.6644C5.63772 23.9641 6.51868 24.1697 7.81177 24.2294C9.10789 24.2902 9.52002 24.3023 12.8211 24.3023C16.1222 24.3023 16.5343 24.2871 17.8304 24.2294C19.1235 24.1687 20.0055 23.9641 20.7801 23.6644C21.5909 23.3589 22.3254 22.8807 22.9329 22.263C23.5516 21.6563 24.03 20.9215 24.3343 20.1102C24.634 19.3355 24.8396 18.4536 24.8993 17.1605C24.9601 15.8644 24.9723 15.4522 24.9723 12.1512C24.9723 8.8501 24.9571 8.43797 24.8993 7.14185C24.8386 5.84876 24.634 4.96578 24.3343 4.19215C24.0291 3.38128 23.5508 2.64665 22.9329 2.03937C22.3265 1.42031 21.5916 0.941907 20.7801 0.637936C20.0055 0.337195 19.1235 0.13265 17.8304 0.072907C16.5343 0.0121512 16.1222 0 12.8211 0ZM12.8211 2.18721C16.0644 2.18721 16.4512 2.20341 17.7322 2.2591C18.9169 2.3148 19.5599 2.51124 19.9872 2.67933C20.5563 2.89907 20.9593 3.16234 21.3866 3.58662C21.8109 4.01191 22.0742 4.41594 22.2939 4.98502C22.46 5.41233 22.6585 6.05533 22.7121 7.24007C22.7699 8.52202 22.783 8.9068 22.783 12.1512C22.783 15.3955 22.7678 15.7813 22.7081 17.0623C22.6463 18.247 22.4489 18.89 22.2818 19.3173C22.0841 19.8446 21.7734 20.3223 21.3715 20.7167C20.9787 21.119 20.5014 21.4289 19.9741 21.624C19.5488 21.7901 18.8957 21.9885 17.7109 22.0422C16.4209 22.0999 16.0411 22.1131 12.7907 22.1131C9.53926 22.1131 9.15954 22.0979 7.8705 22.0382C6.68475 21.9764 6.03162 21.7789 5.60633 21.6119C5.07867 21.4166 4.60151 21.1056 4.20996 20.7015C3.80349 20.3114 3.49174 19.8334 3.29862 19.3041C3.13155 18.8789 2.9351 18.2257 2.87333 17.041C2.82777 15.7651 2.81156 15.3712 2.81156 12.136C2.81156 8.89972 2.82777 8.5048 2.87333 7.21374C2.9351 6.029 3.13155 5.37689 3.29862 4.9516C3.51127 4.37442 3.78366 3.97951 4.20996 3.5532C4.63424 3.12893 5.03016 2.85552 5.60633 2.64389C6.03162 2.4758 6.67057 2.27834 7.85531 2.21759C9.14637 2.17202 9.5261 2.15683 12.7755 2.15683L12.8211 2.18721ZM12.8211 5.91154C12.0017 5.91154 11.1903 6.07293 10.4333 6.38651C9.67626 6.70008 8.98841 7.15968 8.40901 7.73909C7.8296 8.31849 7.37 9.00634 7.05643 9.76336C6.74286 10.5204 6.58146 11.3318 6.58146 12.1512C6.58146 12.9706 6.74286 13.7819 7.05643 14.539C7.37 15.296 7.8296 15.9838 8.40901 16.5632C8.98841 17.1426 9.67626 17.6023 10.4333 17.9158C11.1903 18.2294 12.0017 18.3908 12.8211 18.3908C14.4759 18.3908 16.063 17.7334 17.2332 16.5632C18.4033 15.3931 19.0607 13.806 19.0607 12.1512C19.0607 10.4963 18.4033 8.90924 17.2332 7.73909C16.063 6.56893 14.4759 5.91154 12.8211 5.91154ZM12.8211 16.2016C10.5832 16.2016 8.7707 14.389 8.7707 12.1512C8.7707 9.91333 10.5832 8.10078 12.8211 8.10078C15.0589 8.10078 16.8715 9.91333 16.8715 12.1512C16.8715 14.389 15.0589 16.2016 12.8211 16.2016ZM20.7659 5.66548C20.7519 6.0428 20.5921 6.39998 20.3202 6.66195C20.0482 6.92392 19.6854 7.07028 19.3078 7.07028C18.9302 7.07028 18.5673 6.92392 18.2954 6.66195C18.0235 6.39998 17.8637 6.0428 17.8496 5.66548C17.8496 5.27876 18.0033 4.90787 18.2767 4.63442C18.5502 4.36097 18.9211 4.20734 19.3078 4.20734C19.6945 4.20734 20.0654 4.36097 20.3388 4.63442C20.6123 4.90787 20.7659 5.27876 20.7659 5.66548Z" fill="#3E3D3F"/>
</svg>
