<svg width="134" height="40" viewBox="0 0 134 40" fill="none" xmlns="http://www.w3.org/2000/svg">
<path d="M23.7303 10.6093C25.315 18.9022 23.2542 27.8481 16.9084 33.6987C17.075 35.3552 19.0203 36.4131 20.5166 35.6478C17.9933 37.0016 14.7388 37.0594 12.1644 35.7974C13.6675 31.6272 4.45835 34.3654 2.95523 35.6511C7.9577 32.2224 12.093 26.144 11.8549 19.8614C7.62443 19.3341 3.21709 20.5961 0 23.0418C2.21047 17.63 7.35917 13.6604 13.1744 12.9461C16.4901 11.0991 15.089 6.97648 16.9764 4.33692C18.4149 2.2586 21.2647 1.27896 23.6929 2.0443C24.6757 1.02725 25.9612 0.299332 27.3997 0C27.2806 0.421786 27.1242 0.826557 26.9338 1.21433C26.6719 1.74156 26.3216 2.21437 25.9271 2.64976C25.7435 2.85045 25.5701 3.06135 25.4068 3.27224C25.3456 3.35388 25.281 3.43892 25.2232 3.52395C23.7711 5.56826 23.2678 8.13979 23.7371 10.6025L23.7303 10.6093Z" fill="white"/>
<path d="M54.3099 16.1058V33.0555H51.2016V24.5721C51.1846 21.7897 48.9537 19.5753 46.1549 19.5753C43.3561 19.5753 41.1253 21.7897 41.1253 24.5721V33.0555H38V16.1058C38 11.6396 41.6762 8 46.1549 8C50.6337 8 54.3099 11.6396 54.3099 16.1058ZM41.1219 16.1058V18.2181C42.5128 17.1194 44.2641 16.4663 46.1515 16.4663C48.0389 16.4663 49.8073 17.1194 51.1982 18.2181V16.1058C51.1982 13.3233 48.9503 11.092 46.1515 11.092C43.3527 11.092 41.1219 13.3233 41.1219 16.1058Z" fill="#FFF9F9"/>
<path d="M64.546 33.0588C60.0468 33.0588 56.374 29.3647 56.374 24.868C56.374 20.3712 60.0502 16.6941 64.546 16.6941C66.4538 16.6941 68.2018 17.3472 69.5926 18.4459V9.84351H72.7349V24.8714C72.7349 29.3715 69.0417 33.0622 64.546 33.0622V33.0588ZM64.546 29.9158C67.3618 29.9158 69.5926 27.6844 69.5926 24.868C69.5926 22.0515 67.3618 19.8201 64.546 19.8201C61.7302 19.8201 59.4993 22.0685 59.4993 24.868C59.4993 27.6674 61.7472 29.9158 64.546 29.9158ZM69.8171 18.616C69.8171 18.616 69.7831 18.599 69.7661 18.582C69.7831 18.599 69.8001 18.616 69.8171 18.616ZM69.9701 18.7691C69.9701 18.7691 69.9531 18.735 69.9361 18.718C69.9531 18.735 69.9701 18.7521 69.9701 18.7691ZM70.7591 19.5752C70.7591 19.5752 70.7421 19.5582 70.7421 19.5412C70.7421 19.5582 70.7591 19.5582 70.7591 19.5752Z" fill="#FFF9F9"/>
<path d="M91.1636 24.7969V31.6509C91.1636 36.1511 87.4705 39.8417 82.9747 39.8417C80.9819 39.8417 79.1455 39.1036 77.7206 37.8995L79.9344 35.7021C80.7744 36.3382 81.8218 36.6987 82.9747 36.6987C85.7905 36.6987 88.0214 34.4673 88.0214 31.6509V31.2223C86.6305 32.321 84.8791 32.9911 82.9747 32.9911C78.4755 32.9911 74.8027 29.2971 74.8027 24.8003C74.8027 20.3035 78.4755 16.6265 82.9747 16.6265C87.4739 16.6265 91.1636 20.3001 91.1636 24.8003V24.7969ZM77.6491 24.8309C77.6491 27.6473 79.897 29.8957 82.6958 29.8957C85.4946 29.8957 87.7425 27.6473 87.7425 24.8309C87.7425 22.0144 85.5116 19.783 82.6958 19.783C79.88 19.783 77.6491 22.0315 77.6491 24.8309Z" fill="#FFF9F9"/>
<path d="M106.447 33.059V31.2902C105.056 32.3888 103.304 33.059 101.4 33.059C96.9518 33.059 93.313 29.4534 93.2246 25.0212V16.6909H96.3499V24.8817C96.3669 27.6812 98.6012 29.9126 101.4 29.9126C104.199 29.9126 106.447 27.6812 106.447 24.8647V16.6909H109.589V33.059H106.447Z" fill="#FFF9F9"/>
<path d="M114.778 9.84058V12.9666H111.653V9.84058H114.778ZM114.778 16.6946V33.0626H111.653V16.6946H114.778Z" fill="#FFF9F9"/>
<path d="M119.965 16.6909V18.4427C121.356 17.344 123.124 16.6909 125.011 16.6909C129.459 16.6909 133.115 20.2965 133.183 24.7287H133.2V33.059H130.058V24.8511C130.058 22.0517 127.827 19.8203 125.011 19.8203C122.195 19.8203 119.965 22.0687 119.965 24.8681V33.059H116.839V16.6909H119.965Z" fill="#FFF9F9"/>
</svg>
