<svg width="44" height="44" viewBox="0 0 44 44" fill="none" xmlns="http://www.w3.org/2000/svg">
<path d="M23.9379 13.6229C25.7277 11.833 28.6297 11.833 30.4196 13.6229C32.2095 15.4128 32.2095 18.3148 30.4196 20.1047C28.6297 21.8946 25.7277 21.8946 23.9379 20.1047C22.1478 18.3148 22.1478 15.4128 23.9379 13.6229ZM28.475 15.5674C27.7591 14.8515 26.5982 14.8515 25.8823 15.5674C25.1664 16.2834 25.1664 17.4442 25.8823 18.1602C26.5982 18.8762 27.7591 18.8762 28.475 18.1602C29.1911 17.4442 29.1911 16.2834 28.475 15.5674ZM36.1121 4.60499C37.6978 5.09709 38.9395 6.33833 39.4323 7.9238L39.8107 9.1417C41.1749 13.531 39.9938 18.3147 36.7437 21.5648L34.9142 23.3945C36.7978 25.9054 36.5974 29.4842 34.3134 31.7682L32.0355 34.0461C31.4985 34.5831 30.6279 34.5831 30.0909 34.0461L27.1766 31.132L26.8525 31.456C25.5996 32.7091 23.5683 32.7091 22.3154 31.456L21.4223 30.5632L19.935 33.112C19.7201 33.4804 19.3466 33.728 18.9237 33.7829C18.5009 33.8375 18.0766 33.6928 17.7751 33.3914L10.6451 26.2614C10.3455 25.9619 10.2008 25.5409 10.2528 25.1204C10.3048 24.7 10.5477 24.3269 10.9113 24.1093L13.4495 22.5904L12.5866 21.7274C11.3336 20.4745 11.3336 18.443 12.5866 17.1901L12.9162 16.8604L9.99943 13.9437C9.46244 13.4067 9.46244 12.5361 9.99943 11.9991L12.2774 9.72114C14.5623 7.43622 18.1429 7.23668 20.6542 9.12252L22.4798 7.29674C25.7288 4.04787 30.5102 2.86644 34.8983 4.22829L36.1121 4.60499ZM36.8062 8.73996C36.5822 8.0193 36.0177 7.45509 35.297 7.2314L34.0832 6.85471C30.6702 5.7955 26.9513 6.7144 24.4244 9.24129L14.5311 19.1347C14.3521 19.3136 14.3521 19.6039 14.5311 19.7828L24.2598 29.5116C24.4387 29.6905 24.7289 29.6905 24.9081 29.5116L34.7993 19.6204C37.3271 17.0924 38.2456 13.3717 37.1846 9.95786L36.8062 8.73996ZM12.2646 33.7225C12.8016 33.1856 12.8016 32.3149 12.2646 31.7779C11.7276 31.2409 10.857 31.2409 10.3201 31.7779L5.78278 36.3152C5.24581 36.8522 5.24581 37.7229 5.78278 38.2599C6.31976 38.7968 7.19036 38.7968 7.72732 38.2599L12.2646 33.7225ZM8.69954 28.213C9.2365 28.75 9.2365 29.6206 8.69954 30.1576L6.755 32.1021C6.21801 32.639 5.34742 32.639 4.81045 32.1021C4.27347 31.5651 4.27347 30.6944 4.81045 30.1576L6.755 28.213C7.29196 27.676 8.16256 27.676 8.69954 28.213ZM15.8259 37.2913C16.3629 36.7543 16.3629 35.8839 15.8259 35.3469C15.2889 34.8099 14.4183 34.8099 13.8813 35.3469L11.9406 37.2875C11.4036 37.8244 11.4036 38.6951 11.9406 39.2321C12.4775 39.7691 13.3481 39.7691 13.8851 39.2321L15.8259 37.2913Z" fill="#252C4E"/>
</svg>
