<svg width="32" height="59" viewBox="0 0 32 59" fill="none" xmlns="http://www.w3.org/2000/svg">
<path d="M30.1579 43.1195C30.1579 39.2802 28.6327 35.5981 25.9179 32.8833C23.2031 30.1685 19.521 28.6433 15.6817 28.6433C11.8424 28.6433 8.16034 30.1685 5.44554 32.8833C2.73073 35.5981 1.20557 39.2802 1.20557 43.1195L15.6817 43.1195H30.1579Z" stroke="#191523" stroke-width="2.06802"/>
<rect x="11.2278" y="22.3333" width="8.90841" height="6.31012" rx="1.48473" stroke="#191523" stroke-width="2.06802"/>
<path d="M20.8518 44.0475C20.8518 44.7264 20.7181 45.3987 20.4583 46.026C20.1985 46.6533 19.8176 47.2232 19.3376 47.7033C18.8575 48.1834 18.2875 48.5642 17.6603 48.824C17.033 49.0838 16.3607 49.2176 15.6818 49.2176C15.0028 49.2176 14.3305 49.0838 13.7033 48.824C13.076 48.5642 12.5061 48.1834 12.026 47.7033C11.5459 47.2232 11.1651 46.6533 10.9053 46.026C10.6454 45.3987 10.5117 44.7264 10.5117 44.0475L15.6818 44.0475H20.8518Z" stroke="#191523" stroke-width="2.06802"/>
<path d="M16.1987 52.3196V57.4896" stroke="#191523" stroke-width="1.60284" stroke-linecap="round"/>
<path d="M8.99756 52.3196L5.34178 55.9754" stroke="#191523" stroke-width="1.60284" stroke-linecap="round"/>
<path d="M22.9199 52.3196L26.5757 55.9754" stroke="#191523" stroke-width="1.60284" stroke-linecap="round"/>
<path d="M15.6311 21.532L15.6311 -48.1914" stroke="#191523" stroke-width="2.40426" stroke-linecap="round"/>
</svg>
