<svg width="31" height="25" viewBox="0 0 31 25" fill="none" xmlns="http://www.w3.org/2000/svg">
<path d="M30.8066 2.89389C29.6875 3.38662 28.5019 3.71186 27.2881 3.85915C28.5661 3.09099 29.523 1.88635 29.982 0.467687C28.7976 1.15893 27.4848 1.66211 26.0874 1.94234C25.1655 0.956452 23.9438 0.302562 22.6121 0.0822103C21.2804 -0.138141 19.9132 0.0873778 18.7228 0.723747C17.5324 1.36012 16.5854 2.37173 16.0289 3.60149C15.4724 4.83125 15.3376 6.21034 15.6452 7.52461C10.5512 7.28424 6.03632 4.8381 3.01477 1.14025C2.46525 2.07413 2.17863 3.13929 2.18527 4.22283C2.18527 6.35261 3.26885 8.22458 4.9104 9.32434C3.9375 9.29338 2.98608 9.03033 2.13545 8.55712V8.6331C2.1349 10.0485 2.62402 11.4204 3.51982 12.5162C4.41562 13.612 5.66294 14.3642 7.05014 14.6451C6.15127 14.8859 5.20983 14.9221 4.29513 14.7509C4.68901 15.9689 5.45322 17.0336 6.48114 17.7965C7.50907 18.5594 8.74947 18.9825 10.0293 19.0068C7.86157 20.7079 5.18498 21.6313 2.42939 21.6285C1.94365 21.6285 1.45915 21.5999 0.972168 21.5451C3.78162 23.3439 7.04829 24.2988 10.3843 24.2963C21.6609 24.2963 27.8199 14.9602 27.8199 6.87696C27.8199 6.61665 27.8199 6.35386 27.8012 6.0923C29.0043 5.2265 30.0421 4.15159 30.8651 2.9188L30.8066 2.89389Z" fill="#3E3D3F"/>
</svg>
