<svg width="34" height="23" viewBox="0 0 34 23" fill="none" xmlns="http://www.w3.org/2000/svg">
<path d="M32.4055 3.47627C32.2188 2.80728 31.8627 2.19778 31.3716 1.70666C30.8805 1.21554 30.271 0.859415 29.602 0.672712C27.0911 1.92875e-05 16.986 1.9047e-05 16.986 1.9047e-05C16.986 1.9047e-05 6.90633 -0.0134077 4.36997 0.672712C3.70099 0.859415 3.09148 1.21554 2.60036 1.70666C2.10924 2.19778 1.75312 2.80728 1.56641 3.47627C1.09045 6.04688 0.855804 8.65635 0.865524 11.2706C0.857642 13.8751 1.09228 16.4746 1.56641 19.0355C1.75312 19.7044 2.10924 20.314 2.60036 20.8051C3.09148 21.2962 3.70099 21.6523 4.36997 21.839C6.87813 22.5131 16.986 22.5131 16.986 22.5131C16.986 22.5131 27.0643 22.5131 29.602 21.839C30.271 21.6523 30.8805 21.2962 31.3716 20.8051C31.8627 20.314 32.2188 19.7044 32.4055 19.0355C32.8698 16.4736 33.0945 13.8741 33.0769 11.2706C33.0963 8.65728 32.8716 6.04781 32.4055 3.47627ZM13.7608 16.0923V6.43423L22.1715 11.2706L13.7608 16.0923Z" fill="#3E3D3F"/>
</svg>